<svg width="1150" height="400" fill="none" xmlns="http://www.w3.org/2000/svg">
    <!-- Logo provided by WirVsVirus Projekt, https://wirvsvirushackathon.org/ -->
    <path
        d="M393.48 257.76c8.96 0 15.39-5.04 15.39-13.36 0-7.35-4.13-11.41-11.54-14.27l-6.58-2.52c-5.04-1.96-7.42-3.99-7.42-8.54 0-4.55 4.27-7.63 9.66-7.63 4.55 0 7.56 2.03 10.15 5.11l4.13-3.36c-2.66-3.78-7.77-6.79-14.06-6.79-8.61 0-15.18 4.97-15.18 12.73 0 6.79 3.29 10.63 10.99 13.57l7.34 2.8c4.55 1.75 7.21 4.69 7.21 9.03 0 5.11-4.48 8.19-10 8.19-6.02 0-10.01-2.66-12.8-7.07l-4.41 3.15c2.22 4.97 8.86 8.96 17.12 8.96zm-49.57 0c11.34 0 19.17-7.7 19.17-20.08v-30.44h-5.32v30.58c0 9.59-5.53 14.91-13.85 14.91-8.33 0-13.86-5.32-13.86-14.91v-30.58h-5.32v30.44c0 12.39 7.84 20.08 19.18 20.08zm-65.11-28.83v-16.72h10.29c6.3 0 9.93 2.87 9.93 8.4s-3.64 8.33-9.93 8.33H278.8v-.01zm-5.32 27.99h5.32v-23.09h5.67l19.66 23.09h6.93l-19.59-23.02c8.05-.63 12.94-5.74 12.94-13.29 0-8.12-5.6-13.36-14.69-13.36h-16.24v49.67zm-29.6 0h5.32v-49.68h-5.32v49.68zm-43.8 0h4.34l21.34-49.68h-5.88l-17.63 41-17.63-41h-5.95l21.41 49.68z"
        fill="#fff" />
    <path
        d="M394.03 200.51c8.96 0 15.39-5.04 15.39-13.36 0-7.35-4.13-11.41-11.55-14.27l-6.58-2.52c-5.04-1.96-7.42-3.99-7.42-8.54 0-4.55 4.27-7.63 9.66-7.63 4.55 0 7.56 2.03 10.15 5.11l4.13-3.36c-2.66-3.78-7.77-6.79-14.07-6.79-8.61 0-15.18 4.97-15.18 12.73 0 6.79 3.29 10.63 10.98 13.57l7.35 2.8c4.55 1.75 7.21 4.69 7.21 9.03 0 5.11-4.48 8.19-10 8.19-6.02 0-10.01-2.66-12.81-7.07l-4.41 3.15c2.25 4.97 8.9 8.96 17.15 8.96zm-51.85-.84h4.34l21.34-49.68h-5.88l-17.63 41-17.63-41h-5.95l21.41 49.68z"
        stroke="#fff" stroke-width="2" stroke-miterlimit="1.788" />
    <path
        d="M283.83 169.73v-9.52h7.14c3.29 0 5.67 1.75 5.67 4.76 0 2.87-2.38 4.76-5.67 4.76h-7.14zm-11.12 29.94h11.12v-20.5h1.82l16.51 20.5h13.36l-17.56-21.9c6.3-2.24 9.72-6.37 9.72-12.8 0-8.26-6.02-14.97-15.39-14.97H272.7v49.67h.01zm-27.92 0h11.13v-49.68h-11.13v49.68zm-67.39 0h10l9.94-32.75 9.86 32.75h10.08l15.46-49.68h-11.89l-9.03 31.7-9.66-31.7h-9.78l-9.66 31.56-9.03-31.56h-11.75l15.46 49.68z"
        fill="#fff" />
    <path
        d="M523.59 71.57c2.81.08 5.47 1.26 7.43 3.27 63.14 63.14 63.14 165.85 0 228.99-63.14 63.14-165.85 63.14-228.99 0-4.29-4.16-4.39-11-.23-15.28 4.16-4.29 11-4.39 15.28-.23l.23.23c54.88 54.88 143.54 54.88 198.43 0 54.88-54.88 54.88-143.54 0-198.43-4.28-4.16-4.38-11-.22-15.28 2.11-2.17 5.04-3.36 8.07-3.27z"
        fill="#000" />
    <path
        d="M416.53 49.01c50.06 0 96.47 26.75 121.47 70.16 25.08 43.4 25.08 96.93 0 140.33-25 43.41-71.41 70.16-121.47 70.16-5.97.09-10.88-4.67-10.97-10.64-.09-5.97 4.67-10.88 10.64-10.97h.34c42.38 0 81.61-22.62 102.75-59.35v-.01l.01-.01a118.573 118.573 0 000-118.7l-.01-.01v-.01c-21.14-36.72-60.37-59.35-102.75-59.35-5.97.09-10.88-4.67-10.97-10.64-.09-5.97 4.67-10.88 10.64-10.97.09.01.2.01.32.01z"
        fill="#DE0000" />
    <path
        d="M416.53 70.72c30.41 0 60.83 11.58 83.98 34.73 46.23 46.23 46.22 121.57.01 167.87-4.17 4.27-11.02 4.34-15.28.16-4.27-4.17-4.34-11.02-.16-15.28l.15-.15c37.97-38.04 37.97-99.36.01-137.32-38.05-38.05-99.34-38.05-137.39 0-4.16 4.28-11 4.38-15.28.23-4.28-4.15-4.38-11-.23-15.28l.23-.23c23.13-23.16 53.54-34.73 83.96-34.73z"
        fill="#FFCF00" />
    <path fill-rule="evenodd" clip-rule="evenodd" d="M628 83a3 3 0 013 3v231a3 3 0 11-6 0V86a3 3 0 013-3z"
        fill="#fff" />
    <path
        d="M683.165 226h9.486v-17.693h10.022c12.094 0 18.588-7.262 18.588-17.335 0-9.998-6.417-17.336-18.46-17.336h-19.636V226zm9.486-25.492v-18.946h8.693c7.108 0 10.253 3.836 10.253 9.41 0 5.573-3.145 9.536-10.202 9.536h-8.744zM736.701 226h9.486v-19.176h9.664L766.13 226h10.585l-11.327-20.761c6.162-2.481 9.409-7.748 9.409-14.856 0-9.997-6.443-16.747-18.46-16.747h-19.636V226zm9.486-27.051v-17.387h8.693c7.082 0 10.253 3.248 10.253 8.821 0 5.574-3.171 8.566-10.202 8.566h-8.744zM837.519 199.818c0-16.926-10.33-26.898-24.06-26.898-13.756 0-24.06 9.972-24.06 26.898 0 16.901 10.304 26.898 24.06 26.898 13.73 0 24.06-9.972 24.06-26.898zm-9.537 0c0 11.915-5.983 18.384-14.523 18.384-8.514 0-14.523-6.469-14.523-18.384s6.009-18.383 14.523-18.383c8.54 0 14.523 6.468 14.523 18.383zM874.346 173.636v36.819c-.026 5.522-2.583 8.463-7.134 8.463-4.244 0-7.082-2.583-7.159-6.827h-9.435c0 9.665 7.057 14.625 16.236 14.625 10.1 0 16.875-6.136 16.901-16.261v-36.819h-9.409zM901.246 226h34.261v-7.952h-24.775v-14.292h22.807v-7.952h-22.807v-14.216h24.571v-7.952h-34.057V226zM952.18 226h9.486v-15.597l5.804-6.852L983.092 226h11.404l-20.429-28.867 20.25-23.497h-11.583l-20.429 24.06h-.639v-24.06h-9.486V226zM1005.81 181.588h16.18V226h9.41v-44.412h16.18v-7.952h-41.77v7.952zM120.34 196.67h13.1l-3.96 12.48h-13.1l3.96-12.48zM138.96 179l-4.23 13.37h-13.09L125.8 179h-4.57l-4.16 13.37h-10.1v4.3h8.73l-3.95 12.48H102v4.3h8.46l-4.38 13.98h4.64l4.29-13.98h13.17l-4.36 13.98h4.57l4.3-13.98h10.23v-4.3h-8.87l3.96-12.48h9.82v-4.3h-8.52l4.16-13.37h-4.51z"
        fill="#fff" /></svg>