<svg width="955" height="400" viewBox="0 0 955 400" fill="none" xmlns="http://www.w3.org/2000/svg">
    <!-- Logo provided by WirVsVirus Projekt, https://wirvsvirushackathon.org/ -->
    <path
        d="M120.32 183.37H128.72L126.18 191.38H117.78L120.32 183.37ZM132.27 172.04L129.56 180.61H121.16L123.83 172.04H120.9L118.23 180.61H111.75V183.37H117.35L114.81 191.38H108.55V194.14H113.98L111.18 203.11H114.15L116.91 194.14H125.35L122.55 203.11H125.48L128.24 194.14H134.8V191.38H129.11L131.65 183.37H137.95V180.61H132.48L135.15 172.04H132.27Z"
        fill="#2B2B2A" />
    <path
        d="M642.6 214.34C652.12 214.34 658.95 208.99 658.95 200.14C658.95 192.34 654.56 188.02 646.68 184.98L639.69 182.3C634.34 180.22 631.81 178.06 631.81 173.23C631.81 168.4 636.34 165.13 642.07 165.13C646.9 165.13 650.1 167.29 652.85 170.56L657.24 166.99C654.42 162.98 648.99 159.78 642.3 159.78C633.16 159.78 626.17 165.06 626.17 173.31C626.17 180.52 629.66 184.61 637.84 187.73L645.65 190.7C650.48 192.56 653.31 195.68 653.31 200.29C653.31 205.72 648.55 208.99 642.68 208.99C636.29 208.99 632.05 206.17 629.08 201.48L624.4 204.83C626.77 210.1 633.83 214.34 642.6 214.34ZM587.75 214.34C599.79 214.34 608.12 206.16 608.12 193.01V160.67H602.47V193.15C602.47 203.33 596.6 208.98 587.75 208.98C578.9 208.98 573.03 203.33 573.03 193.15V160.67H567.38V193C567.38 206.16 575.71 214.34 587.75 214.34ZM520.78 183.71V165.94H531.71C538.4 165.94 542.26 168.99 542.26 174.86C542.26 180.73 538.4 183.71 531.71 183.71H520.78V183.71ZM515.13 213.45H520.78V188.92H526.8L547.69 213.45H555.05L534.24 189C542.79 188.33 547.99 182.9 547.99 174.88C547.99 166.26 542.04 160.68 532.38 160.68H515.13V213.45V213.45ZM488.07 213.45H493.72V160.67H488.07V213.45ZM445.92 213.45H450.53L473.2 160.67H466.96L448.23 204.23L429.5 160.67H423.18L445.92 213.45Z"
        fill="#2B2B2A" />
    <path
        d="M397.09 214.34C406.61 214.34 413.44 208.99 413.44 200.14C413.44 192.34 409.05 188.02 401.18 184.98L394.19 182.3C388.84 180.22 386.31 178.06 386.31 173.23C386.31 168.4 390.84 165.13 396.57 165.13C401.4 165.13 404.6 167.29 407.35 170.56L411.74 166.99C408.91 162.98 403.49 159.78 396.8 159.78C387.66 159.78 380.67 165.06 380.67 173.31C380.67 180.52 384.16 184.61 392.34 187.73L400.14 190.7C404.97 192.56 407.8 195.68 407.8 200.29C407.8 205.72 403.04 208.99 397.17 208.99C390.78 208.99 386.54 206.17 383.57 201.48L378.89 204.83C381.25 210.1 388.32 214.34 397.09 214.34ZM342.01 213.45H346.62L369.29 160.67H363.05L344.32 204.23L325.59 160.67H319.27L342.01 213.45Z"
        stroke="#2B2B2A" stroke-width="2" stroke-miterlimit="5.533" />
    <path
        d="M280.01 181.63V171.52H287.59C291.08 171.52 293.61 173.38 293.61 176.58C293.61 179.63 291.08 181.63 287.59 181.63H280.01ZM268.2 213.45H280.02V191.67H281.95L299.49 213.45H313.69L295.03 190.18C301.72 187.8 305.36 183.42 305.36 176.58C305.36 167.81 298.97 160.67 289.01 160.67H268.2V213.45ZM238.54 213.45H250.36V160.67H238.54V213.45ZM166.96 213.45H177.59L188.15 178.66L198.63 213.45H209.33L225.76 160.67H213.12L203.53 194.34L193.27 160.67H182.86L172.6 194.19L163.01 160.67H150.53L166.96 213.45Z"
        fill="#2B2B2A" />
    <path
        d="M648.38 244.23C650.79 244.23 653.29 243.48 654.83 241.92V234.6H648.03V236.28H653.08V241.19C651.91 242.15 650.07 242.55 648.38 242.55C644.06 242.55 641.25 239.54 641.25 235.66C641.25 231.78 644.15 228.77 648.1 228.77C650.2 228.77 651.81 229.49 653.03 230.59L654.18 229.28C652.66 227.85 650.6 227.08 648.1 227.08C643.22 227.08 639.45 230.82 639.45 235.66C639.45 240.5 643.12 244.23 648.38 244.23ZM633.91 243.95V227.36H632.13V240.94L621.54 227.36H619.97V243.95H621.75V230.37L632.34 243.95H633.91ZM607.06 244.23C610.85 244.23 613.46 241.66 613.46 237.52V227.35H611.68V237.56C611.68 240.76 609.83 242.54 607.05 242.54C604.27 242.54 602.42 240.76 602.42 237.56V227.35H600.64V237.52C600.66 241.66 603.28 244.23 607.06 244.23ZM586.01 234.61V229.02H589.44C591.54 229.02 592.76 229.98 592.76 231.82C592.76 233.67 591.54 234.6 589.44 234.6H586.01V234.61ZM584.23 243.95H586.01V236.24H587.9L594.47 243.95H596.78L590.24 236.26C592.93 236.05 594.56 234.34 594.56 231.82C594.56 229.11 592.69 227.36 589.65 227.36H584.23V243.95V243.95ZM569.18 243.95H578.64V242.27H570.95V236.26H577.24V234.58H570.95V229.04H578.64V227.36H569.18V243.95ZM560.68 243.95H562.46V227.36H560.68V243.95ZM548.43 244.23C550.84 244.23 553.34 243.48 554.88 241.92V234.6H548.08V236.28H553.13V241.19C551.96 242.15 550.11 242.55 548.43 242.55C544.11 242.55 541.3 239.54 541.3 235.66C541.3 231.78 544.2 228.77 548.15 228.77C550.25 228.77 551.87 229.49 553.08 230.59L554.22 229.28C552.7 227.85 550.64 227.08 548.14 227.08C543.26 227.08 539.49 230.82 539.49 235.66C539.5 240.5 543.17 244.23 548.43 244.23ZM526.11 243.95H535.57V242.27H527.88V236.26H534.17V234.58H527.88V229.04H535.57V227.36H526.11V243.95ZM511.11 234.61V229.02H514.54C516.64 229.02 517.86 229.98 517.86 231.82C517.86 233.67 516.64 234.6 514.54 234.6H511.11V234.61ZM509.33 243.95H511.11V236.24H513L519.57 243.95H521.88L515.34 236.26C518.03 236.05 519.66 234.34 519.66 231.82C519.66 229.11 517.79 227.36 514.75 227.36H509.33V243.95V243.95ZM498.72 244.23C501.71 244.23 503.86 242.55 503.86 239.77C503.86 237.32 502.48 235.96 500 235L497.8 234.16C496.12 233.51 495.32 232.83 495.32 231.31C495.32 229.79 496.75 228.76 498.55 228.76C500.07 228.76 501.07 229.44 501.94 230.47L503.32 229.35C502.43 228.09 500.73 227.08 498.62 227.08C495.74 227.08 493.55 228.74 493.55 231.33C493.55 233.6 494.65 234.88 497.22 235.86L499.67 236.8C501.19 237.38 502.08 238.37 502.08 239.81C502.08 241.52 500.59 242.54 498.74 242.54C496.73 242.54 495.4 241.65 494.46 240.18L492.99 241.23C493.75 242.9 495.97 244.23 498.72 244.23ZM479.35 243.95H488.81V242.27H481.12V236.26H487.41V234.58H481.12V229.04H488.81V227.36H479.35V243.95ZM462.13 242.27V229.04H464.89C469.19 229.04 472.02 231.82 472.02 235.65C472.02 239.48 469.19 242.26 464.89 242.26H462.13V242.27ZM460.35 243.95H464.88C470.09 243.95 473.81 240.45 473.81 235.65C473.81 230.85 470.09 227.35 464.88 227.35H460.35V243.95ZM453.62 243.95V227.36H451.84V240.94L441.25 227.36H439.68V243.95H441.46V230.37L452.05 243.95H453.62ZM426.77 244.23C430.56 244.23 433.17 241.66 433.17 237.52V227.35H431.39V237.56C431.39 240.76 429.54 242.54 426.76 242.54C423.98 242.54 422.13 240.76 422.13 237.56V227.35H420.35V237.52C420.37 241.66 422.98 244.23 426.77 244.23ZM405.57 242.34V236.15H409.61C412.11 236.15 413.33 237.48 413.33 239.26C413.33 241.06 412.09 242.34 409.59 242.34H405.57V242.34ZM405.57 234.61V228.98H409.15C411.11 228.98 412.23 230.29 412.23 231.81C412.23 233.42 411.11 234.61 409.15 234.61H405.57V234.61ZM403.8 243.95H409.41C412.89 243.95 415.09 241.89 415.09 239.11C415.09 236.8 413.76 235.67 412.1 235.14C413.22 234.49 413.99 233.36 413.99 231.61C413.99 229.37 412.21 227.36 409.04 227.36H403.8V243.95ZM381.39 234.61V229.02H384.83C386.93 229.02 388.15 229.98 388.15 231.82C388.15 233.67 386.93 234.6 384.83 234.6H381.39V234.61ZM379.61 243.95H381.39V236.24H383.28L389.85 243.95H392.16L385.62 236.26C388.31 236.05 389.94 234.34 389.94 231.82C389.94 229.11 388.07 227.36 385.03 227.36H379.61V243.95V243.95ZM364.56 243.95H374.02V242.27H366.33V236.26H372.62V234.58H366.33V229.04H374.02V227.36H364.56V243.95ZM347.34 242.27V229.04H350.1C354.4 229.04 357.23 231.82 357.23 235.65C357.23 239.48 354.4 242.26 350.1 242.26H347.34V242.27ZM345.56 243.95H350.09C355.3 243.95 359.02 240.45 359.02 235.65C359.02 230.85 355.3 227.35 350.09 227.35H345.56V243.95ZM331 243.95V227.36H329.22V240.94L318.63 227.36H317.06V243.95H318.84V230.37L329.43 243.95H331ZM302.96 242.55C299.1 242.55 296.18 239.54 296.18 235.66C296.18 231.78 299.1 228.77 302.96 228.77C306.82 228.77 309.74 231.78 309.74 235.66C309.74 239.54 306.82 242.55 302.96 242.55ZM302.96 244.23C307.75 244.23 311.54 240.49 311.54 235.65C311.54 230.81 307.75 227.07 302.96 227.07C298.17 227.07 294.38 230.81 294.38 235.65C294.38 240.5 298.17 244.23 302.96 244.23ZM275.6 243.95H277.38V236.26H287.08V243.95H288.86V227.36H287.08V234.58H277.38V227.36H275.6V243.95ZM263.68 243.95H265.43V229.04H270.8V227.36H258.3V229.04H263.68V243.95ZM245.73 237.13L248.96 229.86L252.18 237.13H245.73ZM240.87 243.95H242.69L244.98 238.79H252.93L255.22 243.95H257.09L249.68 227.36H248.25L240.87 243.95ZM225.38 243.95H227.13V235.93L236.45 243.95H239.09L228.92 235.23L237.17 227.35H234.76L227.12 234.62V227.35H225.37V243.95H225.38ZM212.99 244.23C216.05 244.23 218.69 242.71 220.21 240.35L218.74 239.42C217.55 241.29 215.49 242.55 212.99 242.55C209.13 242.55 206.21 239.54 206.21 235.66C206.21 231.78 209.13 228.77 212.99 228.77C215.49 228.77 217.55 230.03 218.74 231.9L220.21 230.97C218.69 228.61 216.05 227.09 212.99 227.09C208.2 227.09 204.41 230.83 204.41 235.67C204.41 240.5 208.2 244.23 212.99 244.23ZM190.06 237.13L193.29 229.86L196.51 237.13H190.06ZM185.2 243.95H187.02L189.31 238.79H197.26L199.55 243.95H201.42L194.01 227.36H192.58L185.2 243.95ZM167.35 243.95H169.13V236.26H178.83V243.95H180.61V227.36H178.83V234.58H169.13V227.36H167.35V243.95ZM144.94 234.61V229.02H148.37C150.47 229.02 151.69 229.98 151.69 231.82C151.69 233.67 150.47 234.6 148.37 234.6H144.94V234.61ZM143.16 243.95H144.94V236.24H146.83L153.4 243.95H155.71L149.17 236.26C151.86 236.05 153.49 234.34 153.49 231.82C153.49 229.11 151.62 227.36 148.58 227.36H143.16V243.95V243.95ZM128.11 243.95H137.58V242.27H129.89V236.26H136.18V234.58H129.89V229.04H137.58V227.36H128.11V243.95ZM110.89 242.27V229.04H113.65C117.95 229.04 120.78 231.82 120.78 235.65C120.78 239.48 117.95 242.26 113.65 242.26H110.89V242.27ZM109.11 243.95H113.64C118.85 243.95 122.57 240.45 122.57 235.65C122.57 230.85 118.85 227.35 113.64 227.35H109.11V243.95Z"
        fill="#2B2B2A" />
    <path
        d="M794.63 62.2101C797.61 62.3001 800.44 63.5501 802.52 65.6901C869.6 132.77 869.6 241.87 802.52 308.95C735.44 376.03 626.33 376.03 559.26 308.95C554.71 304.53 554.6 297.27 559.02 292.72C563.44 288.17 570.71 288.06 575.26 292.48C575.34 292.56 575.42 292.64 575.5 292.72C633.8 351.02 727.99 351.02 786.29 292.72C844.59 234.42 844.59 140.23 786.29 81.9301C781.74 77.5101 781.64 70.2401 786.06 65.6901C788.3 63.3701 791.41 62.1101 794.63 62.2101Z"
        fill="black" />
    <path
        d="M680.89 38.2402C734.08 38.2402 783.37 66.6602 809.93 112.78C836.57 158.88 836.57 215.75 809.93 261.86C783.37 307.97 734.07 336.39 680.89 336.39C674.55 336.49 669.33 331.43 669.23 325.09C669.13 318.75 674.19 313.53 680.53 313.43C680.65 313.43 680.77 313.43 680.89 313.43C725.9 313.43 767.58 289.4 790.04 250.39V250.38L790.05 250.37C812.6 211.34 812.6 163.3 790.05 124.27L790.04 124.26V124.25C767.58 85.2302 725.9 61.2002 680.89 61.2002C674.55 61.3002 669.33 56.2402 669.23 49.9002C669.13 43.5602 674.19 38.3402 680.53 38.2402C680.65 38.2402 680.77 38.2402 680.89 38.2402Z"
        fill="#DE0000" />
    <path
        d="M680.89 61.2998C713.2 61.2998 745.51 73.5998 770.1 98.1898C819.21 147.3 819.2 227.33 770.11 276.52C765.67 281.05 758.4 281.13 753.87 276.69C749.34 272.25 749.26 264.98 753.7 260.45C753.75 260.4 753.8 260.35 753.86 260.29C794.2 219.87 794.19 154.74 753.87 114.41C713.44 73.9998 648.33 73.9998 607.91 114.42C603.49 118.97 596.23 119.08 591.68 114.66C587.13 110.24 587.02 102.97 591.44 98.4198C591.52 98.3398 591.6 98.2598 591.68 98.1798C616.27 73.5898 648.58 61.2998 680.89 61.2998Z"
        fill="#FFCF00" />
</svg>