<?xml version="1.0" standalone="no"?>
<!DOCTYPE svg PUBLIC "-//W3C//DTD SVG 1.1//EN" "http://www.w3.org/Graphics/SVG/1.1/DTD/svg11.dtd">
<svg xmlns="http://www.w3.org/2000/svg">
<defs >
<font id="GothicA1" horiz-adv-x="973" ><font-face
    font-family="Gothic A1 Medium"
    units-per-em="1024"
    panose-1="0 0 0 0 0 0 0 0 0 0"
    ascent="817"
    descent="-207"
    alphabetic="0" />
<glyph unicode=" " glyph-name="space" horiz-adv-x="250" />
<glyph unicode="!" glyph-name="exclam" horiz-adv-x="322" d="M91 -8V119H231V-8H91ZM206 213H117L108 765H214L206 213Z" />
<glyph unicode="&quot;" glyph-name="quotedbl" horiz-adv-x="530" d="M286 550L373 853H495L362 550H286ZM69 550L156 853H279L145 550H69Z" />
<glyph unicode="#" glyph-name="numbersign" horiz-adv-x="744" d="M51 203V276H181L207 466H83V538H216L243 739H329L302 538H489L515 739H601L574 538H695V466H565L540 276H663V203H531L504 2H416L444 203H258L232 2H144L171 203H51ZM268 276H453L479 466H292L268 276Z" />
<glyph unicode="$" glyph-name="dollar" horiz-adv-x="607" d="M58 146L130 182Q160 136 208 108T308 80Q368 80 408 110T448 201Q448 225 439 245T420 278T383 306T340 329T283 353T223 379Q150 412 115 457T79 570Q79 636 127 691T262 758V843H350V757Q406 753
457 715T527 633L454 598Q395 682 306 682Q246 682 211 650T175 569Q175 540 183 520T224 480T270 453T343 422Q358 415 366 412Q404 397 431 381T487 342T530 284T545 209Q545 121 491 67T350 2V-77H262V4Q203 9 145 48T58 146Z" />
<glyph unicode="%" glyph-name="percent" horiz-adv-x="1019" d="M551 169Q551 251 607 303T751 356Q837 356 893 304T950 169Q950 85 894 34T751 -18Q665 -18 608 34T551 169ZM641 169Q641 117 673 86T751 55Q796 55 828 86T860 169Q860 221 829 252T751 283Q705
283 673 252T641 169ZM70 594Q70 676 125 728T269 781Q356 781 412 729T468 594Q468 511 412 459T269 407Q183 407 127 459T70 594ZM160 594Q160 542 192 511T269 480Q314 480 346 511T379 594Q379 646 348 677T269 708Q223 708 192 677T160 594ZM189 -2L733 765H831L286
-2H189Z" />
<glyph unicode="&amp;" glyph-name="ampersand" horiz-adv-x="678" d="M154 196Q154 134 194 98T299 62Q385 62 455 143L275 384Q154 298 154 196ZM57 195Q57 341 227 451Q197 492 187 507T166 550T155 608Q155 677 206 723T347 770Q422 770 473 733T552 637L480
605Q461 640 428 665T354 691Q306 691 279 667T252 605Q252 567 308 485T503 221Q532 282 545 361L632 346Q615 236 562 145L675 0H563L507 72Q420 -18 296 -18Q182 -18 120 43T57 195Z" />
<glyph unicode="&apos;" glyph-name="quotesingle" horiz-adv-x="328" d="M82 550L168 853H291L158 550H82Z" />
<glyph unicode="(" glyph-name="parenleft" horiz-adv-x="461" d="M147 366Q147 656 324 884L392 846Q362 798 351 780T313 709T275 615T252 506T241 366Q241 280 253 208T290 76T336 -22T392 -113L324 -152Q243 -45 195 77T147 366Z" />
<glyph unicode=")" glyph-name="parenright" horiz-adv-x="461" d="M69 -113Q145 -1 182 108T220 366Q220 452 208 523T171 655T125 754T69 846L138 884Q315 654 315 366Q315 200 267 77T138 -152L69 -113Z" />
<glyph unicode="*" glyph-name="asterisk" horiz-adv-x="579" d="M22 427L56 505L252 429L244 626H334L327 429L523 505L556 427L348 357L504 186L433 134L289 317L145 134L75 186L231 357L22 427Z" />
<glyph unicode="+" glyph-name="plus" horiz-adv-x="579" d="M28 336V419H243V632H335V419H550V336H335V115H243V336H28Z" />
<glyph unicode="," glyph-name="comma" horiz-adv-x="361" d="M48 -172L135 131H258L125 -172H48Z" />
<glyph unicode="-" glyph-name="hyphen" horiz-adv-x="579" d="M49 336V419H529V336H49Z" />
<glyph unicode="." glyph-name="period" horiz-adv-x="361" d="M111 0V131H251V0H111Z" />
<glyph unicode="/" glyph-name="slash" horiz-adv-x="364" d="M-14 -57L280 811H379L85 -57H-14Z" />
<glyph unicode="0" glyph-name="zero" horiz-adv-x="579" d="M147 381Q147 287 160 218T207 106T291 62Q330 62 358 88T402 160T425 261T432 381Q432 526 397 614T289 702Q216 702 182 615T147 381ZM47 381Q47 490 68 571T124 696T201 760T289 781Q404 781 468
677T532 381Q532 201 472 92T291 -18Q244 -18 203 3T125 69T68 194T47 381Z" />
<glyph unicode="1" glyph-name="one" horiz-adv-x="579" d="M97 568V642H129Q216 642 249 670T282 749V771H366V-10H266V568H97Z" />
<glyph unicode="2" glyph-name="two" horiz-adv-x="579" d="M50 585Q72 676 131 728T287 781Q386 781 449 724T513 567Q513 453 395 340Q385 330 356 302T317 265T285 234T254 201T229 172T205 141T188 112T172 80H512V0H55Q55 42 71 86T107 162T170 241T238 312T318
387Q413 478 413 569Q413 632 378 667T285 702Q226 702 188 665T134 562L50 585Z" />
<glyph unicode="3" glyph-name="three" horiz-adv-x="579" d="M35 139L115 170Q167 62 277 62Q343 62 387 101T432 214Q432 282 383 321T262 361Q234 361 198 358V438Q221 436 258 436Q320 436 361 472T402 573Q402 629 366 665T273 702Q180 702 135 588L55 614Q78
688 134 734T278 781Q381 781 441 725T502 582Q502 518 468 472T386 404Q444 387 488 339T532 214Q532 104 463 43T278 -18Q188 -18 124 27T35 139Z" />
<glyph unicode="4" glyph-name="four" horiz-adv-x="579" d="M23 246L369 772H455V248H560V168H455V-9H358V168H23V246ZM117 248H358V512Q358 572 362 627H358Q358 627 295 525L117 248Z" />
<glyph unicode="5" glyph-name="five" horiz-adv-x="579" d="M45 130L126 159Q147 115 185 89T270 62Q341 62 381 109T421 231Q421 307 378 354T267 402Q187 402 128 334L68 357L108 763H477V683H197L171 442Q227 481 301 481Q398 481 459 414T521 234Q521 130
458 56T272 -18Q190 -18 133 22T45 130Z" />
<glyph unicode="6" glyph-name="six" horiz-adv-x="579" d="M152 239Q152 161 192 112T297 62Q359 62 399 110T439 239Q439 321 399 369T295 418Q234 418 193 367T152 239ZM49 342Q49 427 64 502T110 642T195 743T322 781Q462 781 530 637L453 610Q401 702 322
702Q193 702 159 485Q149 430 147 394Q167 440 209 469T309 498Q410 498 473 425T537 240Q537 129 474 56T301 -18Q185 -18 120 63Q49 148 49 342Z" />
<glyph unicode="7" glyph-name="seven" horiz-adv-x="579" d="M43 680V763H519V697Q324 381 238 -9H138Q208 333 406 680H43Z" />
<glyph unicode="8" glyph-name="eight" horiz-adv-x="579" d="M164 572Q164 514 200 479T289 444Q344 444 379 480T415 572Q415 628 380 665T289 702Q233 702 199 664T164 572ZM40 206Q40 286 81 336T182 406Q64 460 64 577Q64 664 127 722T289 781Q385 781 450
723T515 577Q515 512 481 470T397 406Q458 386 499 335T541 205Q541 107 470 45T289 -18Q184 -18 112 42T40 206ZM140 211Q140 146 182 104T289 62Q354 62 397 104T440 211Q440 275 397 320T289 365Q226 365 183 321T140 211Z" />
<glyph unicode="9" glyph-name="nine" horiz-adv-x="579" d="M138 525Q138 446 180 397T280 348Q341 348 381 397T422 524Q422 599 383 650T280 702Q219 702 179 653T138 525ZM44 129L124 156Q144 115 179 89T258 62Q304 62 338 87T390 156T418 251T428 363Q409
325 368 297T267 269Q174 269 107 338T40 524Q40 637 108 709T280 781Q368 781 428 725T509 578Q523 516 523 419Q523 214 459 98T257 -18Q181 -18 125 26T44 129Z" />
<glyph unicode=":" glyph-name="colon" horiz-adv-x="361" d="M111 79V210H251V79H111ZM111 484V615H251V484H111Z" />
<glyph unicode=";" glyph-name="semicolon" horiz-adv-x="361" d="M48 -93L135 210H258L125 -93H48ZM112 484V615H253V484H112Z" />
<glyph unicode="&lt;" glyph-name="less" horiz-adv-x="579" d="M50 326V413L477 731L528 660L143 369L528 78L477 7L50 326Z" />
<glyph unicode="=" glyph-name="equal" horiz-adv-x="579" d="M49 233V316H529V233H49ZM49 439V522H529V439H49Z" />
<glyph unicode="&gt;" glyph-name="greater" horiz-adv-x="579" d="M101 7L52 78L436 369L52 660L101 731L530 413V326L101 7Z" />
<glyph unicode="?" glyph-name="question" horiz-adv-x="581" d="M64 610Q89 687 149 734T292 782Q390 782 449 725T509 573Q509 526 491 489T446 426T393 375T348 315T329 237V208H232V244Q232 293 250 333T295 399T347 450T391 507T410 576Q410 632 379 666T293
700Q198 700 150 581L64 610ZM210 -8V119H351V-8H210Z" />
<glyph unicode="@" glyph-name="at" horiz-adv-x="977" d="M57 359Q57 551 183 672T510 794Q691 794 805 687T920 413Q920 265 858 193T716 120Q671 120 638 149T600 224H599Q583 185 542 153T446 121Q372 121 323 177T273 325Q273 448 337 518T489 589Q563 589
603 528L607 580H680L665 284Q663 239 679 216T722 192Q771 192 804 249T837 407Q837 548 748 636T509 724Q348 724 245 622T141 359Q141 190 240 93T498 -5Q614 -5 721 26L736 -39Q630 -75 498 -75Q298 -75 178 45T57 359ZM361 326Q361 271 387 234T457 197Q506
197 547 248T589 414Q589 457 566 487T494 518Q444 518 403 466T361 326Z" />
<glyph unicode="A" glyph-name="A" horiz-adv-x="669" d="M201 287H468L387 524Q381 542 364 595T338 672H332Q325 650 308 598T283 524L201 287ZM-4 0L278 763H392L673 0H568L496 209H174L101 0H-4Z" />
<glyph unicode="B" glyph-name="B" horiz-adv-x="691" d="M99 0V763H383Q497 763 556 710T615 565Q615 506 586 464T510 401Q565 384 604 335T643 216Q643 126 584 63T420 0H99ZM196 83H399Q460 83 501 118T543 215Q543 274 503 313T395 352H196V83ZM196 433H369Q432
433 473 464T515 558Q515 613 481 646T373 680H196V433Z" />
<glyph unicode="C" glyph-name="C" horiz-adv-x="679" d="M49 381Q49 566 140 673T379 781Q471 781 536 731T633 608L550 580Q483 698 377 698Q272 698 211 612T149 381Q149 235 211 151T377 66Q443 66 492 103T566 196L653 168Q638 134 616 104T560 45T481 -1T379
-18Q234 -18 142 88T49 381Z" />
<glyph unicode="D" glyph-name="D" horiz-adv-x="713" d="M99 0V763H312Q479 763 573 665T668 381Q668 207 578 104T310 0H99ZM196 82H297Q424 82 496 153T568 381Q568 680 299 680H196V82Z" />
<glyph unicode="E" glyph-name="E" horiz-adv-x="629" d="M99 0V763H584V680H196V435H546V354H196V83H593V0H99Z" />
<glyph unicode="F" glyph-name="F" horiz-adv-x="583" d="M99 0V763H570V680H196V425H531V343H196V0H99Z" />
<glyph unicode="G" glyph-name="G" horiz-adv-x="738" d="M49 381Q49 557 139 669T385 781Q439 781 485 764T563 720T614 666T647 612L564 584Q493 698 385 698Q273 698 211 611T149 381Q149 234 213 150T381 66Q474 66 525 124T578 266Q578 275 578 299T579 334H373V417H673V0H604L596
100Q534 -18 378 -18Q233 -18 141 89T49 381Z" />
<glyph unicode="H" glyph-name="H" horiz-adv-x="743" d="M99 0V763H196V433H548V763H645V0H548V352H196V0H99Z" />
<glyph unicode="I" glyph-name="I" horiz-adv-x="294" d="M99 0V763H196V0H99Z" />
<glyph unicode="J" glyph-name="J" horiz-adv-x="521" d="M11 129L95 162Q108 119 139 93T212 66Q325 66 325 226V763H423V212Q423 100 369 41T214 -18Q132 -18 82 23T11 129Z" />
<glyph unicode="K" glyph-name="K" horiz-adv-x="666" d="M99 0V763H196V380H198L527 763H654L362 432L667 0H547L300 362L196 244V0H99Z" />
<glyph unicode="L" glyph-name="L" horiz-adv-x="561" d="M99 0V763H196V83H553V0H99Z" />
<glyph unicode="M" glyph-name="M" horiz-adv-x="901" d="M99 0V763H222L378 372Q394 330 419 259T448 177H452Q457 192 525 372L679 763H804V0H707V402Q707 498 718 634H714L670 512L491 52H412L233 512L187 635H183Q196 479 196 402V0H99Z" />
<glyph unicode="N" glyph-name="N" horiz-adv-x="748" d="M99 0V763H206L470 299L559 141H565Q552 234 552 358V763H649V0H542L278 463L189 621H185Q196 517 196 404V0H99Z" />
<glyph unicode="O" glyph-name="O" horiz-adv-x="738" d="M49 381Q49 561 136 671T370 781Q517 781 603 671T690 380Q690 198 603 90T370 -18Q224 -18 137 90T49 381ZM149 381Q149 236 208 151T370 66Q471 66 530 149T590 380Q590 525 532 611T370 698Q268 698
209 612T149 381Z" />
<glyph unicode="P" glyph-name="P" horiz-adv-x="673" d="M99 0V763H390Q504 763 569 701T635 536Q635 431 568 370T391 309H196V0H99ZM196 391H377Q452 391 493 427T535 536Q535 606 494 643T375 680H196V391Z" />
<glyph unicode="Q" glyph-name="Q" horiz-adv-x="738" d="M49 380Q49 562 137 671T370 781Q516 781 603 671T690 380Q690 201 604 92T370 -18Q223 -18 136 91T49 380ZM149 380Q149 235 208 151T370 66Q471 66 530 150T590 380Q590 529 531 613T370 698Q269 698
209 613T149 380ZM349 235L409 289L690 1L630 -52L349 235Z" />
<glyph unicode="R" glyph-name="R" horiz-adv-x="690" d="M196 404H386Q459 404 498 441T537 544Q537 605 496 642T380 680H196V404ZM99 0V763H400Q514 763 575 702T637 551Q637 471 599 421T512 357Q552 334 570 303T600 214Q611 167 617 142T639 78T678 0H569Q528
73 498 207Q485 262 461 291T382 321H196V0H99Z" />
<glyph unicode="S" glyph-name="S" horiz-adv-x="632" d="M36 150L124 181Q154 128 206 97T328 66Q402 66 448 102T494 199Q494 231 481 255T438 298T384 327T315 352Q196 391 152 419Q62 477 62 578Q62 670 133 725T322 781Q414 781 481 739T578 631L495 603Q434
698 320 698Q247 698 205 665T162 578Q162 547 177 523T223 482T282 453T356 427Q369 423 375 421Q423 405 456 390T524 349T576 287T594 202Q594 98 521 40T326 -18Q222 -18 148 27T36 150Z" />
<glyph unicode="T" glyph-name="T" horiz-adv-x="574" d="M12 680V763H565V680H337V0H240V680H12Z" />
<glyph unicode="U" glyph-name="U" horiz-adv-x="740" d="M96 279V763H194V281Q194 172 242 119T370 66Q451 66 499 121T547 281V763H645V279Q645 138 575 60T370 -18Q240 -18 168 58T96 279Z" />
<glyph unicode="V" glyph-name="V" horiz-adv-x="617" d="M-1 763H105L258 267Q266 238 282 184T307 99L311 98Q320 129 335 182T359 267L513 763H620L367 0H252L-1 763Z" />
<glyph unicode="W" glyph-name="W" horiz-adv-x="891" d="M12 763H117L214 280Q236 151 243 108H249Q252 123 264 186T283 280L395 763H496L610 280Q620 237 644 108H648Q650 120 678 280L776 763H881L704 0H591L481 477Q477 495 470 528T458 589T448 642H444Q441
624 411 477L301 0H189L12 763Z" />
<glyph unicode="X" glyph-name="X" horiz-adv-x="613" d="M-1 0L248 392L12 763H130L236 585Q244 572 257 548T282 504T305 465H309Q322 489 347 530T380 585L485 763H604L366 392L616 0H500L385 187Q358 232 309 316H305Q263 242 230 187L116 0H-1Z" />
<glyph unicode="Y" glyph-name="Y" horiz-adv-x="627" d="M-3 763H111L238 533Q279 457 312 395H315Q328 419 353 466T390 533L516 763H630L363 312V0H266V312L-3 763Z" />
<glyph unicode="Z" glyph-name="Z" horiz-adv-x="629" d="M42 71L460 680H74V763H580V690L160 83H590V0H42V71Z" />
<glyph unicode="[" glyph-name="bracketleft" horiz-adv-x="461" d="M144 -130V862H369V784H239V-53H369V-130H144Z" />
<glyph unicode="\" glyph-name="backslash" horiz-adv-x="347" d="M-14 811H83L363 -57H266L-14 811Z" />
<glyph unicode="]" glyph-name="bracketright" horiz-adv-x="461" d="M92 -53H223V784H92V862H317V-130H92V-53Z" />
<glyph unicode="^" glyph-name="asciicircum" horiz-adv-x="528" d="M14 489L219 839H309L514 489H416L300 699L265 764L264 763L228 698L112 489H14Z" />
<glyph unicode="_" glyph-name="underscore" horiz-adv-x="480" d="M6 -14H477V-91H6V-14Z" />
<glyph unicode="`" glyph-name="grave" horiz-adv-x="328" d="M171 550L38 853H160L247 550H171Z" />
<glyph unicode="a" glyph-name="a" horiz-adv-x="571" d="M134 146Q134 110 164 85T245 60Q313 60 360 104T408 217V285Q368 275 278 261Q134 237 134 146ZM40 138Q40 293 275 329Q377 345 408 355V386Q408 434 375 464T280 494Q232 494 188 472T113 412L54 462Q95
511 154 540T278 569Q501 569 501 349V0H411V83Q394 42 346 12T233 -18Q142 -18 91 25T40 138Z" />
<glyph unicode="b" glyph-name="b" horiz-adv-x="607" d="M82 0V790H175V465Q192 504 234 536T334 569Q436 569 501 491T566 276Q566 200 545 141T489 49T415 -1T334 -18Q279 -18 236 13T174 89V0H82ZM173 276Q173 177 215 119T321 61Q386 61 428 117T470 276Q470
374 429 432T321 490Q258 490 216 432T173 276Z" />
<glyph unicode="c" glyph-name="c" horiz-adv-x="527" d="M41 275Q41 407 109 488T290 569Q367 569 420 524T491 419L411 396Q397 435 365 462T291 490Q220 490 179 429T137 275Q137 176 180 119T291 61Q337 61 373 91T425 162L505 138Q485 75 427 29T290 -18Q179
-18 110 61T41 275Z" />
<glyph unicode="d" glyph-name="d" horiz-adv-x="607" d="M41 276Q41 412 107 490T274 569Q330 569 372 538T432 467V790H525V0H435V90Q415 44 372 13T274 -18Q232 -18 192 -2T118 48T62 141T41 276ZM137 276Q137 177 178 119T286 61Q348 61 391 119T434 276Q434
373 392 431T286 490Q218 490 178 431T137 276Z" />
<glyph unicode="e" glyph-name="e" horiz-adv-x="577" d="M41 279Q41 409 112 489T294 569Q405 569 471 490T538 288Q538 272 536 244H136Q136 168 179 114T299 59Q401 59 448 147L527 122Q501 61 443 22T298 -18Q183 -18 112 63T41 279ZM138 313H443Q443 388
403 440T294 492Q224 492 182 439T138 313Z" />
<glyph unicode="f" glyph-name="f" horiz-adv-x="352" d="M24 472V551H115V627Q115 710 156 750T271 790H348V712H284Q209 712 209 619V551H335V472H209V0H115V472H24Z" />
<glyph unicode="g" glyph-name="g" horiz-adv-x="592" d="M137 286Q137 193 177 138T281 82Q345 82 383 136T422 287Q422 382 383 436T282 490Q216 490 177 433T137 286ZM42 285Q42 413 106 491T270 569Q329 569 367 539T422 470V551H515V69Q515 -87 458 -163T277
-239Q142 -239 68 -137L132 -94Q193 -163 279 -163Q345 -163 383 -112T422 23Q422 37 422 62T423 97Q403 56 364 30T273 3Q169 3 106 81T42 285Z" />
<glyph unicode="h" glyph-name="h" horiz-adv-x="588" d="M82 0V790H175V473H177Q198 513 241 541T337 569Q419 569 468 519T518 356V0H425V342Q425 490 320 490Q261 490 218 441T175 323V0H82Z" />
<glyph unicode="i" glyph-name="i" horiz-adv-x="279" d="M84 660V774H195V660H84ZM94 0V551H186V0H94Z" />
<glyph unicode="j" glyph-name="j" horiz-adv-x="284" d="M88 660V774H201V660H88ZM-11 -148H12Q98 -148 98 -28V551H191V-33Q191 -129 149 -178T27 -228H-11V-148Z" />
<glyph unicode="k" glyph-name="k" horiz-adv-x="534" d="M84 0V790H178V294L402 551H523L324 329L542 0H430L264 264L178 168V0H84Z" />
<glyph unicode="l" glyph-name="l" horiz-adv-x="268" d="M88 0V790H181V0H88Z" />
<glyph unicode="m" glyph-name="m" horiz-adv-x="864" d="M76 0V551H168V475Q183 509 222 539T319 569Q416 569 457 455Q463 469 474 484T505 521T558 555T631 569Q794 569 794 356V0H700V350Q700 419 681 454T610 490Q555 490 518 444T481 327V0H389V352Q389
490 298 490Q239 490 205 446T171 331V0H76Z" />
<glyph unicode="n" glyph-name="n" horiz-adv-x="583" d="M76 0V551H168V465H169Q182 502 226 535T336 569Q415 569 464 520T514 356V0H419V341Q419 490 315 490Q256 490 214 442T171 325V0H76Z" />
<glyph unicode="o" glyph-name="o" horiz-adv-x="582" d="M137 275Q137 174 182 118T292 61Q356 61 401 117T446 275Q446 378 401 434T292 490Q228 490 183 435T137 275ZM41 275Q41 400 106 484T292 569Q411 569 476 485T542 275Q542 223 529 174T488 81T409 9T292
-18Q226 -18 176 8T97 79T55 172T41 275Z" />
<glyph unicode="p" glyph-name="p" horiz-adv-x="607" d="M175 276Q175 179 213 120T321 61Q386 61 428 118T471 276Q471 371 431 430T321 490Q255 490 215 430T175 276ZM82 -235V551H172V461Q195 509 237 539T334 569Q435 569 500 490T566 276Q566 132 497 57T334
-18Q275 -18 234 11T175 84V-235H82Z" />
<glyph unicode="q" glyph-name="q" horiz-adv-x="605" d="M137 276Q137 176 179 119T286 61Q353 61 393 119T433 276Q433 370 393 430T286 490Q215 490 176 430T137 276ZM41 276Q41 410 106 489T274 569Q327 569 369 540T435 461V551H525V-235H432V85Q412 41 371
12T274 -18Q180 -18 111 57T41 276Z" />
<glyph unicode="r" glyph-name="r" horiz-adv-x="384" d="M76 0V551H166V478Q182 513 219 541T311 569Q353 569 387 555V470Q351 484 311 484Q244 484 208 433T171 298V0H76Z" />
<glyph unicode="s" glyph-name="s" horiz-adv-x="512" d="M33 111L102 151Q161 60 260 60Q316 60 350 81T384 140Q384 154 380 166T362 188T339 205T304 221T266 234T219 249Q183 260 159 271T107 301T65 348T51 412Q51 482 108 525T260 569Q328 569 386 534T470
447L407 407Q384 442 346 466T261 491Q205 491 176 470T146 411Q146 389 157 372T195 341T239 320T294 302Q331 291 358 279T416 248T462 201T479 139Q479 73 421 28T261 -18Q185 -18 126 16T33 111Z" />
<glyph unicode="t" glyph-name="t" horiz-adv-x="375" d="M19 472V551H112V723H206V551H344V472H206V167Q206 120 224 100T281 80H345V0H269Q112 0 112 159V472H19Z" />
<glyph unicode="u" glyph-name="u" horiz-adv-x="580" d="M70 196V551H164V212Q164 61 273 61Q339 61 375 114T411 239V551H504V0H414V80H413Q402 47 362 15T252 -18Q174 -18 122 34T70 196Z" />
<glyph unicode="v" glyph-name="v" horiz-adv-x="524" d="M8 551H112L218 228Q228 197 244 141T261 80H263Q270 106 286 159T308 228L413 551H516L318 0H207L8 551Z" />
<glyph unicode="w" glyph-name="w" horiz-adv-x="751" d="M8 551H111L184 232Q189 210 198 163T213 88H217Q240 194 248 232L323 551H429L505 228Q509 210 519 164T536 88H540Q543 104 553 154T569 232L641 551H744L593 0H482L407 310Q384 417 378 451H374Q357
364 345 310L271 0H159L8 551Z" />
<glyph unicode="x" glyph-name="x" horiz-adv-x="518" d="M5 0L202 285L15 551H127L214 417Q223 403 237 381T256 351H260Q266 362 280 384T300 417L387 551H499L313 285L511 0H400L301 153Q284 178 260 218H256Q240 190 215 153L116 0H5Z" />
<glyph unicode="y" glyph-name="y" horiz-adv-x="522" d="M8 551H114L221 242Q250 158 264 107H268Q297 203 309 242L410 551H515L281 -85Q251 -168 208 -201T101 -235H68V-157H86Q127 -157 154 -136T200 -61L220 0L8 551Z" />
<glyph unicode="z" glyph-name="z" horiz-adv-x="499" d="M30 0V63L339 472H57V551H460V492L150 79H470V0H30Z" />
<glyph unicode="{" glyph-name="braceleft" horiz-adv-x="461" d="M65 327V399H95Q126 399 144 431T163 529V724Q163 789 199 825T293 862H376V784H310Q287 784 272 766T257 712V515Q257 453 237 420T182 363Q257 323 257 221V25Q257 -14 272 -33T312 -53H376V-130H293Q238
-130 201 -96T163 7V207Q163 261 144 294T95 327H65Z" />
<glyph unicode="|" glyph-name="bar" horiz-adv-x="287" d="M97 -169V897H191V-169H97Z" />
<glyph unicode="}" glyph-name="braceright" horiz-adv-x="461" d="M86 -53H150Q175 -53 190 -34T205 25V221Q205 320 280 363Q245 386 225 419T205 515V712Q205 747 191 765T152 784H86V862H168Q225 862 261 826T298 724V529Q298 464 316 432T366 399H396V327H366Q334
327 316 294T298 207V7Q298 -61 261 -95T168 -130H86V-53Z" />
<glyph unicode="~" glyph-name="asciitilde" horiz-adv-x="798" d="M69 317Q138 475 275 475Q316 475 353 454T413 409T466 363T524 342Q551 342 571 351T608 381T629 412T646 448Q649 453 650 456L729 418Q658 260 526 260Q485 260 447 281T386 326T332 372T275
393Q199 393 149 279L69 317Z" />
<glyph unicode="&#xa0;" glyph-name=".notdef" horiz-adv-x="250" />
<glyph unicode="&#xa1;" glyph-name="exclamdown" horiz-adv-x="322" d="M108 -216L117 333H206L214 -216H108ZM91 428V555H231V428H91Z" />
<glyph unicode="&#xa2;" glyph-name="cent" horiz-adv-x="526" d="M41 276Q41 389 95 470T246 564V645H332V565Q395 552 435 511T491 419L412 396Q396 435 366 462T293 490Q220 490 179 430T137 276Q137 179 179 120T292 61Q337 61 373 91T425 162L504 138Q487
85 443 43T332 -14V-99H246V-13Q155 -2 98 76T41 276Z" />
<glyph unicode="&#xa3;" glyph-name="sterling" horiz-adv-x="612" d="M40 337V419H152V588Q152 681 211 731T371 781Q439 781 490 747T564 666L495 627Q476 655 444 676T372 697Q316 697 282 667T248 579V419H473V337H248V222Q248 125 205 88Q255 98 284 98Q314
98 364 82T450 65Q519 65 576 97L603 18Q529 -18 448 -18Q415 -18 351 -1T254 16Q218 16 171 9T94 -6L64 -13L39 57Q94 70 123 112T152 217V337H40Z" />
<glyph unicode="&#xa4;" glyph-name="currency" horiz-adv-x="665" d="M26 151L140 257Q99 310 99 381Q99 453 139 505L26 610L90 671L199 566Q264 609 333 609Q405 609 468 566L576 670L640 609L529 505Q568 456 568 381Q568 309 528 257L640 151L576 91L467
195Q406 152 333 152Q258 152 199 195L90 91L26 151ZM185 381Q185 321 226 278T333 234Q398 234 440 277T482 381Q482 442 440 484T333 527Q269 527 227 484T185 381Z" />
<glyph unicode="&#xa5;" glyph-name="yen" horiz-adv-x="626" d="M-3 763H111L231 575Q291 480 312 442H315Q328 463 354 507T395 575L516 763H630L406 426H562V356H362V243H562V173H362V0H265V173H64V243H265V356H64V426H221L-3 763Z" />
<glyph unicode="&#xa6;" glyph-name="brokenbar" horiz-adv-x="287" d="M97 477V897H191V477H97ZM97 -168V251H191V-168H97Z" />
<glyph unicode="&#xa7;" glyph-name="section" horiz-adv-x="577" d="M53 51L117 98Q140 66 179 46T267 25Q382 25 382 93Q382 118 366 133T312 165L201 216Q133 247 101 283T69 370Q69 449 164 519Q98 570 98 630Q98 698 152 739T312 781Q381 781 435 752T523
675L461 627Q397 699 309 699Q252 699 224 680T196 630Q196 618 200 608T214 588T232 572T258 556T285 542T318 526T352 511Q386 495 403 487T447 461T487 427T510 387T521 335Q521 253 439 187Q479 147 479 93Q479 25 427 -16T268 -57Q196 -57 138 -25T53 51ZM167
374Q167 339 186 321T258 279L364 231Q424 281 424 335Q424 365 401 385T325 432L237 477Q167 426 167 374Z" />
<glyph unicode="&#xa8;" glyph-name="dieresis" horiz-adv-x="508" d="M102 648V763H215V648H102ZM294 648V763H407V648H294Z" />
<glyph unicode="&#xa9;" glyph-name="copyright" horiz-adv-x="900" d="M256 386Q256 498 312 564T464 630Q528 630 569 596T631 508L561 485Q523 559 464 559Q405 559 372 513T338 386Q338 304 372 259T464 214Q501 214 529 237T571 294L642 272Q624 219 578
181T463 142Q371 142 314 207T256 386ZM45 387Q45 570 160 683T450 797Q627 797 742 683T857 387Q857 209 742 94T450 -22Q276 -22 161 91T45 387ZM115 387Q115 234 207 138T450 41Q597 41 692 136T787 387Q787 541 693 637T450 733Q302 733 209 637T115 387Z"
/>
<glyph unicode="&#xaa;" glyph-name="ordfeminine" horiz-adv-x="401" d="M38 326V389H364V326H38ZM101 564Q101 540 120 524T174 508Q219 508 251 537T283 613V656Q267 652 236 647T186 638T144 626T112 602T101 564ZM30 559Q30 597 47 623T97 664T158 685T227
698T283 710V729Q283 760 260 780T197 800Q160 800 130 782T84 743L39 781Q58 807 101 832T196 857Q353 857 353 704V460H285V509Q248 448 166 448Q102 448 66 479T30 559Z" />
<glyph unicode="&#xab;" glyph-name="guillemotleft" horiz-adv-x="500" d="M39 264L207 505L275 460L141 264L274 71L207 24L39 264ZM230 264L397 496L463 446L332 264L463 81L397 32L230 264Z" />
<glyph unicode="&#xac;" glyph-name="logicalnot" horiz-adv-x="570" d="M49 321V403H522V127H432V321H49Z" />
<glyph unicode="&#xad;" glyph-name=".notdef" horiz-adv-x="581" d="M59 337V420H522V337H59Z" />
<glyph unicode="&#xae;" glyph-name="registered" horiz-adv-x="900" d="M301 151V617H486Q554 617 591 579T629 484Q629 404 561 370Q594 345 607 285Q620 224 659 151H569Q543 195 525 277Q520 300 517 310T503 332T473 343H382V151H301ZM382 407H474Q509 407
528 426T547 477Q547 506 529 525T474 545H382V407ZM45 388Q45 571 160 684T450 797Q627 797 742 683T857 388Q857 209 743 94T450 -22Q276 -22 161 91T45 388ZM115 388Q115 234 207 139T450 43Q599 43 693 138T787 388Q787 543 692 637T450 732Q301 732 208 637T115
388Z" />
<glyph unicode="&#xaf;" glyph-name="overscore" horiz-adv-x="520" d="M1 753V835H520V753H1Z" />
<glyph unicode="&#xb0;" glyph-name="degree" horiz-adv-x="439" d="M87 640Q87 694 124 732T220 770Q276 770 314 733T353 640Q353 585 314 548T220 510Q164 510 126 547T87 640ZM149 640Q149 609 169 589T220 568Q249 568 269 588T290 640Q290 669 271 690T220
711Q188 711 169 690T149 640Z" />
<glyph unicode="&#xb1;" glyph-name="plusminus" horiz-adv-x="581" d="M44 417V499H244V676H337V499H537V417H337V242H244V417H44ZM45 94V176H537V94H45Z" />
<glyph unicode="&#xb2;" glyph-name="twosuperior" horiz-adv-x="337" d="M28 734Q58 856 168 856Q227 856 264 822T302 729Q302 664 230 592Q221 583 200 563T166 530T139 500T116 464H302V405H32Q32 461 62 504T181 633Q232 680 232 730Q232 762 215 779T167
797Q139 797 120 779T97 749T88 718L28 734Z" />
<glyph unicode="&#xb3;" glyph-name="threesuperior" horiz-adv-x="337" d="M20 495L76 517Q106 454 163 454Q197 454 220 474T243 533Q243 568 218 587T155 607Q139 607 113 605V665Q145 663 153 663Q185 663 205 681T226 733Q226 762 208 780T161 798Q131 798
116 781T88 733L31 751Q63 856 163 856Q223 856 259 823T296 738Q296 672 242 640Q313 608 313 533Q313 469 272 432T163 395Q110 395 73 422T20 495Z" />
<glyph unicode="&#xb4;" glyph-name="acute" horiz-adv-x="363" d="M78 675L192 855H310L159 675H78Z" />
<glyph unicode="&#xb5;" glyph-name="mu" horiz-adv-x="591" d="M82 -235V551H176V212Q176 61 284 61Q351 61 386 114T422 239V551H516V0H426V80H425Q411 39 369 11T267 -18Q208 -18 176 28V-235H82Z" />
<glyph unicode="&#xb6;" glyph-name="paragraph" horiz-adv-x="655" d="M57 566Q57 670 111 733T269 797H566V-74H488V711H392V-74H314V336Q290 328 255 328Q171 328 114 390T57 566Z" />
<glyph unicode="&#xb7;" glyph-name="middot" horiz-adv-x="354" d="M107 301V431H247V301H107Z" />
<glyph unicode="&#xb8;" glyph-name="cedilla" horiz-adv-x="312" d="M45 -160Q91 -170 111 -170Q175 -170 175 -132Q175 -89 79 -82L130 24H213L183 -38Q218 -48 240 -72T263 -133Q263 -178 229 -208T118 -238Q77 -238 45 -228V-160Z" />
<glyph unicode="&#xb9;" glyph-name="onesuperior" horiz-adv-x="337" d="M52 726V781H77Q122 781 139 795T156 835V854H217V405H147V726H52Z" />
<glyph unicode="&#xba;" glyph-name="ordmasculine" horiz-adv-x="404" d="M99 653Q99 584 129 546T202 508Q244 508 275 546T306 653Q306 723 276 760T202 797Q159 797 129 760T99 653ZM27 653Q27 740 72 798T202 857Q285 857 331 799T377 653Q377 617 368 583T339
517T284 467T202 448Q141 448 100 481T43 558T27 653ZM38 328V391H367V328H38Z" />
<glyph unicode="&#xbb;" glyph-name="guillemotright" horiz-adv-x="499" d="M37 446L104 496L271 264L104 32L38 81L170 264L37 446ZM227 72L359 264L225 460L295 505L461 264L295 24L227 72Z" />
<glyph unicode="&#xbc;" glyph-name="onequarter" horiz-adv-x="1005" d="M79 673V741H110Q159 741 178 756T197 799V823H271V307H186V673H79ZM570 129L794 471H866V138H932V65H866V-47H782V65H570V129ZM659 138H782V284Q782 292 782 310T783 334L755 287L659
138ZM166 -52L658 811H748L259 -52H166Z" />
<glyph unicode="&#xbd;" glyph-name="onehalf" horiz-adv-x="1005" d="M79 673V741H110Q159 741 178 756T197 799V823H271V307H186V673H79ZM592 328Q625 471 755 471Q823 471 866 432T910 324Q910 248 826 166Q820 160 807 148T788 130T773 115T758 101T745 88T733
74T723 62T714 50T707 39T700 26H909V-47H597Q597 16 629 67T768 218Q824 270 824 325Q824 361 806 380T754 399Q688 399 666 307L592 328ZM159 -52L653 811H743L252 -52H159Z" />
<glyph unicode="&#xbe;" glyph-name="threequarters" horiz-adv-x="1005" d="M62 424L132 451Q142 432 150 419T180 393T230 380Q267 380 292 401T317 465Q317 503 289 525T220 548Q206 548 169 545V619Q188 617 218 617Q253 617 275 637T298 693Q298 725 279
744T227 764Q194 764 177 744T146 689L75 712Q92 769 131 802T230 836Q300 836 342 797T384 699Q384 627 324 588Q402 550 402 465Q402 391 355 349T230 307Q179 307 133 333T62 424ZM578 129L803 471H874V138H940V65H874V-47H790V65H578V129ZM667 138H790V283Q790
291 790 309T791 333L764 287L667 138ZM236 -52L731 811H821L329 -52H236Z" />
<glyph unicode="&#xbf;" glyph-name="questiondown" horiz-adv-x="581" d="M72 -24Q72 23 90 60T135 123T188 174T233 234T252 313V339H349V306Q349 255 331 216T287 150T234 99T190 44T172 -27Q172 -84 203 -117T288 -151Q383 -151 431 -32L517 -61Q491 -138
432 -186T289 -234Q192 -234 132 -177T72 -24ZM230 429V555H370V429H230Z" />
<glyph unicode="&#xc0;" glyph-name="Agrave" horiz-adv-x="669" d="M201 287H468L387 524Q381 542 364 595T338 672H332Q325 650 308 598T283 524L201 287ZM-4 0L278 763H392L673 0H568L496 209H174L101 0H-4ZM418 1017H536L650 837H568L418 1017Z" />
<glyph unicode="&#xc1;" glyph-name="Aacute" horiz-adv-x="669" d="M201 287H468L387 524Q381 542 364 595T338 672H332Q325 650 308 598T283 524L201 287ZM-4 0L278 763H392L673 0H568L496 209H174L101 0H-4ZM516 837L629 1017H747L597 837H516Z" />
<glyph unicode="&#xc2;" glyph-name="Acircumflex" horiz-adv-x="669" d="M201 287H468L387 524Q381 542 364 595T338 672H332Q325 650 308 598T283 524L201 287ZM-4 0L278 763H392L673 0H568L496 209H174L101 0H-4ZM126 837L293 1010H375L544 837H445L334 959L225
837H126Z" />
<glyph unicode="&#xc3;" glyph-name="Atilde" horiz-adv-x="669" d="M201 287H468L387 524Q381 542 364 595T338 672H332Q325 650 308 598T283 524L201 287ZM-4 0L278 763H392L673 0H568L496 209H174L101 0H-4ZM105 903Q157 996 244 996Q281 996 330 964T400 932Q450
932 485 995L540 954Q486 861 402 861Q364 861 317 893T246 926Q220 926 197 908T160 862L105 903Z" />
<glyph unicode="&#xc4;" glyph-name="Adieresis" horiz-adv-x="669" d="M201 287H468L387 524Q381 542 364 595T338 672H332Q325 650 308 598T283 524L201 287ZM-4 0L278 763H392L673 0H568L496 209H174L101 0H-4ZM423 874V981H536V874H423ZM642 874V981H754V874H642Z" />
<glyph unicode="&#xc5;" glyph-name="Aring" horiz-adv-x="669" d="M201 287H468L387 524Q381 542 364 595T338 672H332Q325 650 308 598T283 524L201 287ZM-4 0L278 763H392L673 0H568L496 209H174L101 0H-4ZM192 932Q192 988 232 1029T335 1070Q397 1070 438
1029T479 932Q479 875 438 835T335 794Q276 794 234 833T192 932ZM258 932Q258 900 280 879T335 857Q368 857 389 878T411 932Q411 964 390 986T335 1008Q301 1008 280 986T258 932Z" />
<glyph unicode="&#xc6;" glyph-name="AE" horiz-adv-x="979" d="M260 288H487V671H478L260 288ZM-4 0L428 763H933V680H584V436H896V354H578V82H943V0H487V209H217L102 0H-4Z" />
<glyph unicode="&#xc7;" glyph-name="Ccedilla" horiz-adv-x="679" d="M49 381Q49 566 140 673T379 781Q471 781 536 731T633 608L550 580Q483 698 377 698Q272 698 211 612T149 381Q149 235 211 151T377 66Q443 66 492 103T566 196L653 168Q638 134 616 104T560
45T481 -1T379 -18Q234 -18 142 88T49 381ZM520 -157Q574 -171 614 -171Q642 -171 666 -159T691 -125Q691 -101 658 -91T576 -81L599 11H684L668 -45Q715 -50 741 -72T767 -130Q767 -172 729 -201T617 -231Q566 -231 520 -217V-157Z" />
<glyph unicode="&#xc8;" glyph-name="Egrave" horiz-adv-x="629" d="M99 0V763H584V680H196V435H546V354H196V83H593V0H99ZM181 1017H299L413 837H331L181 1017Z" />
<glyph unicode="&#xc9;" glyph-name="Eacute" horiz-adv-x="629" d="M99 0V763H584V680H196V435H546V354H196V83H593V0H99ZM517 837L630 1017H748L598 837H517Z" />
<glyph unicode="&#xca;" glyph-name="Ecircumflex" horiz-adv-x="629" d="M129 837L296 1010H378L547 837H448L337 959L228 837H129ZM99 0V763H584V680H196V435H546V354H196V83H593V0H99Z" />
<glyph unicode="&#xcb;" glyph-name="Edieresis" horiz-adv-x="629" d="M99 0V763H584V680H196V435H546V354H196V83H593V0H99ZM172 874V981H285V874H172ZM391 874V981H503V874H391Z" />
<glyph unicode="&#xcc;" glyph-name="Igrave" horiz-adv-x="294" d="M99 0V763H196V0H99ZM-23 1017H95L209 837H127L-23 1017Z" />
<glyph unicode="&#xcd;" glyph-name="Iacute" horiz-adv-x="294" d="M99 0V763H196V0H99ZM72 837L185 1017H303L153 837H72Z" />
<glyph unicode="&#xce;" glyph-name="Icircumflex" horiz-adv-x="294" d="M99 0V763H196V0H99ZM-62 837L105 1010H187L356 837H257L146 959L37 837H-62Z" />
<glyph unicode="&#xcf;" glyph-name="Idieresis" horiz-adv-x="294" d="M99 0V763H196V0H99ZM-18 874V981H95V874H-18ZM201 874V981H313V874H201Z" />
<glyph unicode="&#xd0;" glyph-name="Eth" horiz-adv-x="713" d="M99 0V763H312Q479 763 573 665T668 381Q668 207 578 104T310 0H99ZM196 82H297Q424 82 496 153T568 381Q568 680 299 680H196V82ZM268 350V428H650V350H268Z" />
<glyph unicode="&#xd1;" glyph-name="Ntilde" horiz-adv-x="748" d="M154 903Q206 996 293 996Q330 996 379 964T449 932Q499 932 534 995L589 954Q535 861 451 861Q413 861 366 893T295 926Q269 926 246 908T209 862L154 903ZM99 0V763H206L470 299L559 141H565Q552
234 552 358V763H649V0H542L278 463L189 621H185Q196 517 196 404V0H99Z" />
<glyph unicode="&#xd2;" glyph-name="Ograve" horiz-adv-x="738" d="M49 381Q49 561 136 671T370 781Q517 781 603 671T690 380Q690 198 603 90T370 -18Q224 -18 137 90T49 381ZM149 381Q149 236 208 151T370 66Q471 66 530 149T590 380Q590 525 532 611T370 698Q268
698 209 612T149 381ZM199 1023H317L431 843H349L199 1023Z" />
<glyph unicode="&#xd3;" glyph-name="Oacute" horiz-adv-x="738" d="M49 381Q49 561 136 671T370 781Q517 781 603 671T690 380Q690 198 603 90T370 -18Q224 -18 137 90T49 381ZM149 381Q149 236 208 151T370 66Q471 66 530 149T590 380Q590 525 532 611T370 698Q268
698 209 612T149 381ZM299 843L412 1023H530L380 843H299Z" />
<glyph unicode="&#xd4;" glyph-name="Ocircumflex" horiz-adv-x="738" d="M49 381Q49 561 136 671T370 781Q517 781 603 671T690 380Q690 198 603 90T370 -18Q224 -18 137 90T49 381ZM149 381Q149 236 208 151T370 66Q471 66 530 149T590 380Q590 525 532 611T370
698Q268 698 209 612T149 381ZM161 843L328 1016H410L579 843H480L369 965L260 843H161Z" />
<glyph unicode="&#xd5;" glyph-name="Otilde" horiz-adv-x="738" d="M149 903Q201 996 288 996Q325 996 374 964T444 932Q494 932 529 995L584 954Q530 861 446 861Q408 861 361 893T290 926Q264 926 241 908T204 862L149 903ZM49 381Q49 561 136 671T370 781Q517
781 603 671T690 380Q690 198 603 90T370 -18Q224 -18 137 90T49 381ZM149 381Q149 236 208 151T370 66Q471 66 530 149T590 380Q590 525 532 611T370 698Q268 698 209 612T149 381Z" />
<glyph unicode="&#xd6;" glyph-name="Odieresis" horiz-adv-x="738" d="M49 381Q49 561 136 671T370 781Q517 781 603 671T690 380Q690 198 603 90T370 -18Q224 -18 137 90T49 381ZM149 381Q149 236 208 151T370 66Q471 66 530 149T590 380Q590 525 532 611T370
698Q268 698 209 612T149 381ZM203 874V981H316V874H203ZM422 874V981H534V874H422Z" />
<glyph unicode="&#xd7;" glyph-name="multiply" horiz-adv-x="579" d="M43 201L232 378L43 556L103 614L289 433L477 614L536 557L348 378L536 200L476 143L289 323L103 143L43 201Z" />
<glyph unicode="&#xd8;" glyph-name="Oslash" horiz-adv-x="739" d="M49 381Q49 561 136 671T370 781Q456 781 524 741L566 822H653L585 693Q691 584 691 380Q691 198 603 90T370 -18Q293 -18 231 14L188 -68H102L168 58Q49 168 49 381ZM537 603L272 91Q313 66
370 66Q471 66 530 149T590 380Q590 523 537 603ZM483 663Q434 698 370 698Q268 698 209 612T149 381Q149 230 214 145L483 663Z" />
<glyph unicode="&#xd9;" glyph-name="Ugrave" horiz-adv-x="740" d="M96 279V763H194V281Q194 172 242 119T370 66Q451 66 499 121T547 281V763H645V279Q645 138 575 60T370 -18Q240 -18 168 58T96 279ZM207 1023H325L439 843H357L207 1023Z" />
<glyph unicode="&#xda;" glyph-name="Uacute" horiz-adv-x="740" d="M96 279V763H194V281Q194 172 242 119T370 66Q451 66 499 121T547 281V763H645V279Q645 138 575 60T370 -18Q240 -18 168 58T96 279ZM296 843L409 1023H527L377 843H296Z" />
<glyph unicode="&#xdb;" glyph-name="Ucircumflex" horiz-adv-x="740" d="M96 279V763H194V281Q194 172 242 119T370 66Q451 66 499 121T547 281V763H645V279Q645 138 575 60T370 -18Q240 -18 168 58T96 279ZM164 843L331 1016H413L582 843H483L372 965L263 843H164Z" />
<glyph unicode="&#xdc;" glyph-name="Udieresis" horiz-adv-x="740" d="M96 279V763H194V281Q194 172 242 119T370 66Q451 66 499 121T547 281V763H645V279Q645 138 575 60T370 -18Q240 -18 168 58T96 279ZM207 874V981H320V874H207ZM426 874V981H538V874H426Z" />
<glyph unicode="&#xdd;" glyph-name="Yacute" horiz-adv-x="627" d="M-3 763H111L238 533Q279 457 312 395H315Q328 419 353 466T390 533L516 763H630L363 312V0H266V312L-3 763ZM493 843L606 1023H724L574 843H493Z" />
<glyph unicode="&#xde;" glyph-name="Thorn" horiz-adv-x="617" d="M99 0V763H196V637H304Q445 637 511 569T578 394Q578 271 502 210T298 148H196V0H99ZM196 230H289Q476 230 476 395Q476 555 296 555H196V230Z" />
<glyph unicode="&#xdf;" glyph-name="germandbls" horiz-adv-x="674" d="M99 0V568Q99 670 165 725T330 781Q435 781 500 725T566 575Q566 514 540 472T476 408V406Q540 387 583 336T627 201Q627 102 565 42T396 -18Q319 -18 256 3L260 89Q321 65 393 65Q449 65
488 103T527 201Q527 276 483 315T366 355H299V437H357Q405 437 435 474T466 570Q466 626 430 662T332 698Q269 698 233 662T196 561V0H99Z" />
<glyph unicode="&#xe0;" glyph-name="agrave" horiz-adv-x="571" d="M134 146Q134 110 164 85T245 60Q313 60 360 104T408 217V285Q368 275 278 261Q134 237 134 146ZM40 138Q40 293 275 329Q377 345 408 355V386Q408 434 375 464T280 494Q232 494 188 472T113
412L54 462Q95 511 154 540T278 569Q501 569 501 349V0H411V83Q394 42 346 12T233 -18Q142 -18 91 25T40 138ZM127 824H245L359 644H277L127 824Z" />
<glyph unicode="&#xe1;" glyph-name="aacute" horiz-adv-x="571" d="M134 146Q134 110 164 85T245 60Q313 60 360 104T408 217V285Q368 275 278 261Q134 237 134 146ZM40 138Q40 293 275 329Q377 345 408 355V386Q408 434 375 464T280 494Q232 494 188 472T113
412L54 462Q95 511 154 540T278 569Q501 569 501 349V0H411V83Q394 42 346 12T233 -18Q142 -18 91 25T40 138ZM191 648L304 828H422L272 648H191Z" />
<glyph unicode="&#xe2;" glyph-name="acircumflex" horiz-adv-x="571" d="M134 146Q134 110 164 85T245 60Q313 60 360 104T408 217V285Q368 275 278 261Q134 237 134 146ZM40 138Q40 293 275 329Q377 345 408 355V386Q408 434 375 464T280 494Q232 494 188 472T113
412L54 462Q95 511 154 540T278 569Q501 569 501 349V0H411V83Q394 42 346 12T233 -18Q142 -18 91 25T40 138ZM68 648L235 821H317L486 648H387L276 770L167 648H68Z" />
<glyph unicode="&#xe3;" glyph-name="atilde" horiz-adv-x="571" d="M134 146Q134 110 164 85T245 60Q313 60 360 104T408 217V285Q368 275 278 261Q134 237 134 146ZM40 138Q40 293 275 329Q377 345 408 355V386Q408 434 375 464T280 494Q232 494 188 472T113
412L54 462Q95 511 154 540T278 569Q501 569 501 349V0H411V83Q394 42 346 12T233 -18Q142 -18 91 25T40 138ZM319 703Q371 796 458 796Q495 796 544 764T614 732Q664 732 699 795L754 754Q700 661 616 661Q578 661 531 693T460 726Q434 726 411 708T374 662L319
703Z" />
<glyph unicode="&#xe4;" glyph-name="adieresis" horiz-adv-x="571" d="M134 146Q134 110 164 85T245 60Q313 60 360 104T408 217V285Q368 275 278 261Q134 237 134 146ZM40 138Q40 293 275 329Q377 345 408 355V386Q408 434 375 464T280 494Q232 494 188 472T113
412L54 462Q95 511 154 540T278 569Q501 569 501 349V0H411V83Q394 42 346 12T233 -18Q142 -18 91 25T40 138ZM109 682V789H222V682H109ZM328 682V789H440V682H328Z" />
<glyph unicode="&#xe5;" glyph-name="aring" horiz-adv-x="571" d="M134 146Q134 110 164 85T245 60Q313 60 360 104T408 217V285Q368 275 278 261Q134 237 134 146ZM40 138Q40 293 275 329Q377 345 408 355V386Q408 434 375 464T280 494Q232 494 188 472T113
412L54 462Q95 511 154 540T278 569Q501 569 501 349V0H411V83Q394 42 346 12T233 -18Q142 -18 91 25T40 138ZM390 1016Q390 1072 430 1113T533 1154Q595 1154 636 1113T677 1016Q677 959 636 919T533 878Q474 878 432 917T390 1016ZM456 1016Q456 984 478 963T533
941Q566 941 587 962T609 1016Q609 1048 588 1070T533 1092Q499 1092 478 1070T456 1016Z" />
<glyph unicode="&#xe6;" glyph-name="ae" horiz-adv-x="934" d="M40 140Q40 293 278 329Q386 347 408 355Q408 355 408 387Q408 431 375 462T284 494Q183 494 112 412L53 462Q143 569 284 569Q419 569 469 464Q531 569 656 569Q762 569 828 490T895 288V244H502V226Q508
159 547 109T657 59Q709 59 747 84T805 148L884 122Q856 60 799 21T656 -18Q585 -18 532 17T449 114Q372 -18 233 -18Q144 -18 92 25T40 140ZM134 146Q134 110 163 85T243 60Q311 60 359 104T408 217V285Q363 274 284 262Q134 239 134 146ZM502 313H801Q801 388
760 440T656 492Q592 492 553 447T504 333L502 313Z" />
<glyph unicode="&#xe7;" glyph-name="ccedilla" horiz-adv-x="527" d="M41 275Q41 407 109 488T290 569Q367 569 420 524T491 419L411 396Q397 435 365 462T291 490Q220 490 179 429T137 275Q137 176 180 119T291 61Q337 61 373 91T425 162L505 138Q485 75 427
29T290 -18Q179 -18 110 61T41 275ZM418 98Q472 84 512 84Q540 84 564 96T589 130Q589 154 556 164T474 174L497 266H582L566 210Q613 205 639 183T665 125Q665 83 627 54T515 24Q464 24 418 38V98Z" />
<glyph unicode="&#xe8;" glyph-name="egrave" horiz-adv-x="577" d="M41 279Q41 409 112 489T294 569Q405 569 471 490T538 288Q538 272 536 244H136Q136 168 179 114T299 59Q401 59 448 147L527 122Q501 61 443 22T298 -18Q183 -18 112 63T41 279ZM138 313H443Q443
388 403 440T294 492Q224 492 182 439T138 313ZM137 828H255L369 648H287L137 828Z" />
<glyph unicode="&#xe9;" glyph-name="eacute" horiz-adv-x="577" d="M41 279Q41 409 112 489T294 569Q405 569 471 490T538 288Q538 272 536 244H136Q136 168 179 114T299 59Q401 59 448 147L527 122Q501 61 443 22T298 -18Q183 -18 112 63T41 279ZM138 313H443Q443
388 403 440T294 492Q224 492 182 439T138 313ZM197 648L310 828H428L278 648H197Z" />
<glyph unicode="&#xea;" glyph-name="ecircumflex" horiz-adv-x="577" d="M41 279Q41 409 112 489T294 569Q405 569 471 490T538 288Q538 272 536 244H136Q136 168 179 114T299 59Q401 59 448 147L527 122Q501 61 443 22T298 -18Q183 -18 112 63T41 279ZM138 313H443Q443
388 403 440T294 492Q224 492 182 439T138 313ZM85 648L252 821H334L503 648H404L293 770L184 648H85Z" />
<glyph unicode="&#xeb;" glyph-name="edieresis" horiz-adv-x="577" d="M126 682V789H239V682H126ZM345 682V789H457V682H345ZM41 279Q41 409 112 489T294 569Q405 569 471 490T538 288Q538 272 536 244H136Q136 168 179 114T299 59Q401 59 448 147L527 122Q501
61 443 22T298 -18Q183 -18 112 63T41 279ZM138 313H443Q443 388 403 440T294 492Q224 492 182 439T138 313Z" />
<glyph unicode="&#xec;" glyph-name="igrave" horiz-adv-x="261" d="M84 0V551H177V0H84ZM-34 828H84L198 648H116L-34 828Z" />
<glyph unicode="&#xed;" glyph-name="iacute" horiz-adv-x="261" d="M84 0V551H177V0H84ZM57 648L170 828H288L138 648H57Z" />
<glyph unicode="&#xee;" glyph-name="icircumflex" horiz-adv-x="261" d="M-77 648L90 821H172L341 648H242L131 770L22 648H-77ZM84 0V551H177V0H84Z" />
<glyph unicode="&#xef;" glyph-name="idieresis" horiz-adv-x="261" d="M-34 682V789H79V682H-34ZM185 682V789H297V682H185ZM84 0V551H177V0H84Z" />
<glyph unicode="&#xf0;" glyph-name="eth" horiz-adv-x="581" d="M157 606L446 817L500 756L211 546L157 606ZM41 244Q41 367 109 439T285 512Q337 512 376 490T433 437Q407 561 333 632T148 721L180 796Q238 787 288 766T385 705T466 609T520 468T540 278Q540
146 474 64T287 -18Q174 -18 108 56T41 244ZM137 248Q137 165 177 113T289 61Q356 61 396 112T437 249Q437 331 397 381T290 431Q223 431 180 383T137 248Z" />
<glyph unicode="&#xf1;" glyph-name="ntilde" horiz-adv-x="583" d="M71 703Q123 796 210 796Q247 796 296 764T366 732Q416 732 451 795L506 754Q452 661 368 661Q330 661 283 693T212 726Q186 726 163 708T126 662L71 703ZM76 0V551H168V465H169Q182 502 226
535T336 569Q415 569 464 520T514 356V0H419V341Q419 490 315 490Q256 490 214 442T171 325V0H76Z" />
<glyph unicode="&#xf2;" glyph-name="ograve" horiz-adv-x="582" d="M137 275Q137 174 182 118T292 61Q356 61 401 117T446 275Q446 378 401 434T292 490Q228 490 183 435T137 275ZM41 275Q41 400 106 484T292 569Q411 569 476 485T542 275Q542 223 529 174T488
81T409 9T292 -18Q226 -18 176 8T97 79T55 172T41 275ZM137 828H255L369 648H287L137 828Z" />
<glyph unicode="&#xf3;" glyph-name="oacute" horiz-adv-x="582" d="M137 275Q137 174 182 118T292 61Q356 61 401 117T446 275Q446 378 401 434T292 490Q228 490 183 435T137 275ZM41 275Q41 400 106 484T292 569Q411 569 476 485T542 275Q542 223 529 174T488
81T409 9T292 -18Q226 -18 176 8T97 79T55 172T41 275ZM212 648L325 828H443L293 648H212Z" />
<glyph unicode="&#xf4;" glyph-name="ocircumflex" horiz-adv-x="582" d="M83 648L250 821H332L501 648H402L291 770L182 648H83ZM137 275Q137 174 182 118T292 61Q356 61 401 117T446 275Q446 378 401 434T292 490Q228 490 183 435T137 275ZM41 275Q41 400 106
484T292 569Q411 569 476 485T542 275Q542 223 529 174T488 81T409 9T292 -18Q226 -18 176 8T97 79T55 172T41 275Z" />
<glyph unicode="&#xf5;" glyph-name="otilde" horiz-adv-x="582" d="M323 703Q375 796 462 796Q499 796 548 764T618 732Q668 732 703 795L758 754Q704 661 620 661Q582 661 535 693T464 726Q438 726 415 708T378 662L323 703ZM137 275Q137 174 182 118T292 61Q356
61 401 117T446 275Q446 378 401 434T292 490Q228 490 183 435T137 275ZM41 275Q41 400 106 484T292 569Q411 569 476 485T542 275Q542 223 529 174T488 81T409 9T292 -18Q226 -18 176 8T97 79T55 172T41 275Z" />
<glyph unicode="&#xf6;" glyph-name="odieresis" horiz-adv-x="582" d="M126 682V789H239V682H126ZM345 682V789H457V682H345ZM137 275Q137 174 182 118T292 61Q356 61 401 117T446 275Q446 378 401 434T292 490Q228 490 183 435T137 275ZM41 275Q41 400 106 484T292
569Q411 569 476 485T542 275Q542 223 529 174T488 81T409 9T292 -18Q226 -18 176 8T97 79T55 172T41 275Z" />
<glyph unicode="&#xf7;" glyph-name="divide" horiz-adv-x="579" d="M226 512V633H351V512H226ZM28 336V419H550V336H28ZM226 121V243H351V121H226Z" />
<glyph unicode="&#xf8;" glyph-name="oslash" horiz-adv-x="582" d="M41 275Q41 400 106 484T292 569Q355 569 403 544L440 616H516L458 504Q541 424 541 275Q541 223 528 174T487 81T409 9T292 -18Q235 -18 187 3L154 -61H78L131 40Q87 80 64 143T41 275ZM410
416L227 78Q259 61 292 61Q356 61 401 117T446 275Q446 360 410 416ZM363 468Q330 490 292 490Q228 490 183 435T137 275Q137 184 178 126L363 468Z" />
<glyph unicode="&#xf9;" glyph-name="ugrave" horiz-adv-x="580" d="M70 196V551H164V212Q164 61 273 61Q339 61 375 114T411 239V551H504V0H414V80H413Q402 47 362 15T252 -18Q174 -18 122 34T70 196ZM131 828H249L363 648H281L131 828Z" />
<glyph unicode="&#xfa;" glyph-name="uacute" horiz-adv-x="580" d="M70 196V551H164V212Q164 61 273 61Q339 61 375 114T411 239V551H504V0H414V80H413Q402 47 362 15T252 -18Q174 -18 122 34T70 196ZM213 648L326 828H444L294 648H213Z" />
<glyph unicode="&#xfb;" glyph-name="ucircumflex" horiz-adv-x="580" d="M70 196V551H164V212Q164 61 273 61Q339 61 375 114T411 239V551H504V0H414V80H413Q402 47 362 15T252 -18Q174 -18 122 34T70 196ZM89 648L256 821H338L507 648H408L297 770L188 648H89Z" />
<glyph unicode="&#xfc;" glyph-name="udieresis" horiz-adv-x="580" d="M130 682V789H243V682H130ZM349 682V789H461V682H349ZM70 196V551H164V212Q164 61 273 61Q339 61 375 114T411 239V551H504V0H414V80H413Q402 47 362 15T252 -18Q174 -18 122 34T70 196Z" />
<glyph unicode="&#xfd;" glyph-name="yacute" horiz-adv-x="522" d="M8 551H114L221 242Q250 158 264 107H268Q297 203 309 242L410 551H515L281 -85Q251 -168 208 -201T101 -235H68V-157H86Q127 -157 154 -136T200 -61L220 0L8 551ZM171 648L284 828H402L252 648H171Z" />
<glyph unicode="&#xfe;" glyph-name="thorn" horiz-adv-x="611" d="M178 276Q178 179 220 120T323 61Q393 61 434 118T475 276Q475 375 435 432T324 490Q264 490 221 431T178 276ZM87 -236V791H180V463Q195 509 241 539T335 569Q441 569 505 491T570 276Q570 201
550 143T495 50T420 -1T335 -18Q279 -18 238 13T180 85V-236H87Z" />
<glyph unicode="&#xff;" glyph-name="ydieresis" horiz-adv-x="522" d="M89 682V789H202V682H89ZM308 682V789H420V682H308ZM8 551H114L221 242Q250 158 264 107H268Q297 203 309 242L410 551H515L281 -85Q251 -168 208 -201T101 -235H68V-157H86Q127 -157 154
-136T200 -61L220 0L8 551Z" />
<glyph unicode="&#x2013;" glyph-name="endash" horiz-adv-x="524" d="M40 327V410H485V327H40Z" />
<glyph unicode="&#x2014;" glyph-name="emdash" horiz-adv-x="1001" d="M0 327V410H1002V327H0Z" />
<glyph unicode="&#x2018;" glyph-name="quoteleft" horiz-adv-x="361" d="M112 558V652Q112 813 215 896L267 852Q228 818 213 780T197 684H260V558H112Z" />
<glyph unicode="&#x2019;" glyph-name="quoteright" horiz-adv-x="361" d="M101 727V853H250V759Q250 598 146 515L94 559Q133 593 148 631T164 727H101Z" />
<glyph unicode="&#x201a;" glyph-name="quotesinglbase" horiz-adv-x="361" d="M101 5V131H250V37Q250 -124 146 -207L94 -163Q133 -129 148 -91T164 5H101Z" />
<glyph unicode="&#x201c;" glyph-name="quotedblleft" horiz-adv-x="544" d="M321 558V652Q321 813 425 896L477 852Q438 818 423 780T407 684H470V558H321ZM82 558V652Q82 821 185 904L237 861Q167 800 167 684H230V558H82Z" />
<glyph unicode="&#x201d;" glyph-name="quotedblright" horiz-adv-x="544" d="M68 559Q107 593 122 631T137 727H75V853H223V759Q223 598 119 515L68 559ZM308 551Q349 586 363 626T378 727H315V853H464V759Q464 590 360 507L308 551Z" />
<glyph unicode="&#x201e;" glyph-name="quotedblbase" horiz-adv-x="544" d="M68 -163Q107 -129 122 -91T137 5H75V131H223V37Q223 -124 119 -207L68 -163ZM308 -172Q348 -137 362 -97T377 5H315V131H463V37Q463 -132 359 -215L308 -172Z" />
<glyph unicode="&#x2022;" glyph-name="bullet" horiz-adv-x="514" d="M145 255V479H370V255H145Z" />
<glyph unicode="&#x2039;" glyph-name="guilsinglleft" horiz-adv-x="379" d="M72 263L251 508L320 462L174 264L319 66L251 20L72 263Z" />
<glyph unicode="&#x203a;" glyph-name="guilsinglright" horiz-adv-x="379" d="M60 67L205 265L59 463L128 509L307 265L128 20L60 67Z" />
</font>
</defs>
</svg>
