<svg width="20" height="21" xmlns="http://www.w3.org/2000/svg"><g stroke="#FFF" stroke-width="2" fill="none" fill-rule="evenodd" stroke-linecap="round" stroke-linejoin="round"><path d="M16.9 14.173c1.018-.723 1.627-1.656 1.827-2.8.2-1.143-.096-2.131-.887-2.965.2-1.17-.007-2.138-.618-2.905-.612-.767-1.478-1.113-2.598-1.04 0-1.445-.643-2.282-1.928-2.508-1.285-.227-2.184.366-2.696 1.78v14.404c.348 1.161 1.008 1.741 1.978 1.741s1.61-.714 1.92-2.144c2.216.269 3.324-.483 3.324-2.255 0-1.772-1.108-2.474-3.323-2.107"/><path d="M3.22 14.173c-1.017-.723-1.626-1.656-1.826-2.8-.2-1.143.095-2.131.886-2.965-.2-1.17.007-2.138.619-2.905.612-.767 1.478-1.113 2.598-1.04 0-1.445.642-2.282 1.928-2.508 1.285-.227 2.183.366 2.695 1.78v14.404C9.772 19.3 9.113 19.88 8.142 19.88c-.97 0-1.61-.714-1.92-2.144-2.215.269-3.323-.483-3.323-2.255 0-1.772 1.108-2.474 3.323-2.107"/><path d="M10.12 6.79c-.338.937-.745 1.603-1.222 1.998-.476.394-1.142.617-1.999.669"/><path d="M10 6.79c.338.937.745 1.603 1.221 1.998.477.394 1.143.617 2 .669"/></g></svg>